<?xml version="1.0" encoding="iso-8859-1"?>
<!-- Uploaded to: SVG Repo, www.svgrepo.com, Generator: SVG Repo Mixer Tools -->
<svg height="800px" width="800px" version="1.1" id="Capa_1" xmlns="http://www.w3.org/2000/svg" xmlns:xlink="http://www.w3.org/1999/xlink" 
	 viewBox="0 0 464 464" xml:space="preserve">
<g>
	<path style="fill:#AA504B;" d="M392,8H176v77.333L152,64l-24,21.333V8h-24v456h288c8.837,0,16-7.164,16-16V24
		C408,15.164,400.837,8,392,8z M328,200c0,4.418-3.582,8-8,8h-48v144c0,4.418-3.582,8-8,8h-32c-4.418,0-8-3.582-8-8V208h-48
		c-4.418,0-8-3.582-8-8v-32c0-4.418,3.582-8,8-8h48v-48c0-4.418,3.582-8,8-8h32c4.418,0,8,3.582,8,8v48h48c4.418,0,8,3.582,8,8V200z
		"/>
	<path style="fill:#963C3B;" d="M72,8c-8.837,0-16,7.164-16,16v32h24c4.418,0,8,3.582,8,8s-3.582,8-8,8H56v328h24
		c4.418,0,8,3.582,8,8s-3.582,8-8,8H56v32c0,8.836,7.163,16,16,16h32V8H72z"/>
	<path style="fill:#FFB441;" d="M320,160h-48v-48c0-4.418-3.582-8-8-8h-32c-4.418,0-8,3.582-8,8v48h-48c-4.418,0-8,3.582-8,8v32
		c0,4.418,3.582,8,8,8h48v144c0,4.418,3.582,8,8,8h32c4.418,0,8-3.582,8-8V208h48c4.418,0,8-3.582,8-8v-32
		C328,163.582,324.418,160,320,160z"/>
	<path style="fill:#7F3C3B;" d="M88,64c0-4.418-3.582-8-8-8H56v16h24C84.418,72,88,68.418,88,64z"/>
	<path style="fill:#7F3C3B;" d="M88,408c0-4.418-3.582-8-8-8H56v16h24C84.418,416,88,412.418,88,408z"/>
	<path style="fill:#FFB441;" d="M152,64l24,21.333V8c0-4.418-3.582-8-8-8h-32c-4.418,0-8,3.582-8,8v77.333L152,64z"/>
</g>
</svg>